<svg width="26" height="26" viewBox="0 0 26 26" fill="none" xmlns="http://www.w3.org/2000/svg">
<path fill-rule="evenodd" clip-rule="evenodd" d="M13 0C5.8203 0 0 5.8203 0 13C0 20.1797 5.8203 26 13 26C20.1797 26 26 20.1797 26 13C26 5.8203 20.1797 0 13 0ZM10.1417 6.10813C10.8813 6.07448 11.1176 6.06624 13.0006 6.06624H12.9985C14.882 6.06624 15.1175 6.07448 15.857 6.10813C16.5952 6.14193 17.0993 6.25879 17.5413 6.43025C17.9977 6.60719 18.3834 6.84409 18.7691 7.22976C19.1547 7.61514 19.3916 8.00196 19.5693 8.45798C19.7397 8.89883 19.8568 9.40266 19.8914 10.1408C19.9246 10.8803 19.9333 11.1167 19.9333 12.9997C19.9333 14.8826 19.9246 15.1184 19.8914 15.8579C19.8568 16.5958 19.7397 17.0997 19.5693 17.5407C19.3916 17.9966 19.1547 18.3834 18.7691 18.7688C18.3838 19.1545 17.9976 19.392 17.5417 19.5691C17.1006 19.7405 16.5962 19.8574 15.8581 19.8912C15.1185 19.9248 14.8829 19.9331 12.9998 19.9331C11.1169 19.9331 10.8807 19.9248 10.1412 19.8912C9.4032 19.8574 8.89923 19.7405 8.45809 19.5691C8.00236 19.392 7.61553 19.1545 7.2303 18.7688C6.84477 18.3834 6.60788 17.9966 6.43064 17.5406C6.25933 17.0997 6.14247 16.5959 6.10853 15.8578C6.07502 15.1182 6.06664 14.8826 6.06664 12.9997C6.06664 11.1167 6.07531 10.8802 6.10839 10.1406C6.14161 9.4028 6.25861 8.89883 6.4305 8.45784C6.60817 8.00196 6.84506 7.61514 7.23073 7.22976C7.61611 6.84423 8.00294 6.60734 8.45895 6.43025C8.8998 6.25879 9.40363 6.14193 10.1417 6.10813Z" fill="#878D96"/>
<path fill-rule="evenodd" clip-rule="evenodd" d="M12.3786 7.31423C12.4994 7.31404 12.6293 7.3141 12.7695 7.31417L13.0006 7.31423C14.8518 7.31423 15.0712 7.32088 15.8023 7.3541C16.4783 7.38501 16.8452 7.49797 17.0896 7.59287C17.4131 7.71854 17.6438 7.86876 17.8863 8.11143C18.129 8.3541 18.2792 8.58521 18.4052 8.90877C18.5001 9.15289 18.6132 9.51978 18.644 10.1958C18.6772 10.9267 18.6844 11.1462 18.6844 12.9966C18.6844 14.8469 18.6772 15.0665 18.644 15.7974C18.613 16.4734 18.5001 16.8403 18.4052 17.0844C18.2795 17.408 18.129 17.6384 17.8863 17.8809C17.6437 18.1236 17.4133 18.2738 17.0896 18.3994C16.8455 18.4948 16.4783 18.6075 15.8023 18.6384C15.0714 18.6716 14.8518 18.6788 13.0006 18.6788C11.1492 18.6788 10.9298 18.6716 10.1989 18.6384C9.52292 18.6072 9.15602 18.4942 8.91148 18.3993C8.58792 18.2736 8.35681 18.1234 8.11414 17.8807C7.87147 17.6381 7.72124 17.4075 7.59529 17.0838C7.50039 16.8397 7.38728 16.4728 7.35652 15.7968C7.32329 15.0659 7.31665 14.8464 7.31665 12.9949C7.31665 11.1434 7.32329 10.9249 7.35652 10.1941C7.38743 9.51805 7.50039 9.15115 7.59529 8.90675C7.72095 8.58319 7.87147 8.35208 8.11414 8.10941C8.35681 7.86674 8.58792 7.71652 8.91148 7.59056C9.15588 7.49522 9.52292 7.38256 10.1989 7.3515C10.8385 7.32261 11.0864 7.31394 12.3786 7.3125V7.31423ZM16.7016 8.46595C16.2423 8.46595 15.8696 8.83818 15.8696 9.29767C15.8696 9.757 16.2423 10.1297 16.7016 10.1297C17.1609 10.1297 17.5336 9.757 17.5336 9.29767C17.5336 8.83833 17.1609 8.46566 16.7016 8.46566V8.46595ZM9.44001 12.9974C9.44001 11.0311 11.0342 9.43693 13.0005 9.43685C14.9668 9.43685 16.5606 11.0311 16.5606 12.9974C16.5606 14.9638 14.9669 16.5573 13.0006 16.5573C11.0343 16.5573 9.44001 14.9638 9.44001 12.9974Z" fill="#878D96"/>
<path d="M13.0007 10.6895C14.277 10.6895 15.3118 11.7241 15.3118 13.0006C15.3118 14.2769 14.277 15.3117 13.0007 15.3117C11.7242 15.3117 10.6896 14.2769 10.6896 13.0006C10.6896 11.7241 11.7242 10.6895 13.0007 10.6895Z" fill="#878D96"/>
</svg>
