<svg width="26" height="26" viewBox="0 0 26 26" fill="none" xmlns="http://www.w3.org/2000/svg">
<path d="M0 13C0 5.8203 5.8203 0 13 0C20.1797 0 26 5.8203 26 13C26 20.1797 20.1797 26 13 26C5.8203 26 0 20.1797 0 13Z" fill="#878D96"/>
<g clip-path="url(#clip0_161_1591)">
<path d="M9.33524 11.4258C9.08762 11.4258 8.88953 11.627 8.88953 11.8693C8.88953 12.1116 9.09175 12.3128 9.33524 12.3128C9.57873 12.3128 9.78095 12.1116 9.78095 11.8693C9.78095 11.627 9.57873 11.4258 9.33524 11.4258Z" fill="white"/>
<path d="M13.7593 11.3828C13.4952 11.3828 13.2765 11.5964 13.2765 11.8633C13.2765 12.1302 13.4911 12.3438 13.7593 12.3438C14.0276 12.3438 14.2422 12.1302 14.2422 11.8633C14.2422 11.5964 14.0276 11.3828 13.7593 11.3828Z" fill="white"/>
<path d="M17.7625 7H8.23746C7.28 7 6.5 7.77618 6.5 8.72895V14.3511C6.5 15.308 7.28 16.0801 8.23746 16.0801H11.601L12.7441 18.7618C12.7441 18.7618 12.8225 18.9959 13.0124 18.9959C13.2022 18.9959 13.2806 18.7618 13.2806 18.7618L14.4238 16.0801H17.7543C18.7159 16.0801 19.4917 15.3039 19.4917 14.3511V8.72895C19.4917 7.77207 18.7117 7 17.7543 7H17.7625ZM10.5857 11.9692C10.5816 12.9959 9.5127 13.0246 9.5127 13.0246C9.1 13.0246 8.86476 12.7536 8.86476 12.7536V12.9384H8.08889V9.74743C8.13841 9.75565 8.86476 9.74743 8.86476 9.74743V10.9671C9.04635 10.655 9.57873 10.6632 9.57873 10.6632C10.7302 10.77 10.5857 11.9733 10.5857 11.9733V11.9692ZM11.9559 10.7577V12.9425H11.1965V10.7782C11.1965 10.4825 10.8292 10.4004 10.8292 10.4004V9.63655C12.0467 9.68583 11.9559 10.7536 11.9559 10.7536V10.7577ZM13.7594 13.0246C13.0537 13.0246 12.4841 12.5031 12.4841 11.8542C12.4841 11.2053 13.0537 10.6838 13.7594 10.6838C14.4651 10.6838 15.0346 11.2053 15.0346 11.8542C15.0346 12.5031 14.4651 13.0246 13.7594 13.0246ZM17.9317 13.0246C17.9317 13.0246 17.9441 14.1335 16.8092 14.1335H16.4625V13.4148H16.6689C16.6689 13.4148 17.1435 13.46 17.1394 12.729C17.1394 12.729 17.0444 13.0246 16.38 13.0246C16.38 13.0246 15.4308 12.9548 15.4308 12.0349V11.6858C15.4308 11.6858 15.4514 10.7331 16.4914 10.655C16.4914 10.655 16.9041 10.6099 17.1559 10.9507V10.7166H17.9276V13.0246H17.9317Z" fill="white"/>
<path d="M16.7184 11.3906C16.4584 11.3906 16.2479 11.6001 16.2479 11.8588C16.2479 12.1175 16.4584 12.327 16.7184 12.327C16.9784 12.327 17.1889 12.1175 17.1889 11.8588C17.1889 11.6001 16.9784 11.3906 16.7184 11.3906Z" fill="white"/>
</g>
<defs>
<clipPath id="clip0_161_1591">
<rect width="13" height="12" fill="white" transform="translate(6.5 7)"/>
</clipPath>
</defs>
</svg>
