<svg width="26" height="26" viewBox="0 0 26 26" fill="none" xmlns="http://www.w3.org/2000/svg">
<path fill-rule="evenodd" clip-rule="evenodd" d="M13 0C5.8203 0 0 5.8203 0 13C0 20.1797 5.8203 26 13 26C20.1797 26 26 20.1797 26 13C26 5.8203 20.1797 0 13 0ZM18.4696 8.29855C19.072 8.46282 19.5464 8.94685 19.7074 9.56153C20 10.6756 20 13 20 13C20 13 20 15.3244 19.7074 16.4385C19.5464 17.0531 19.072 17.5372 18.4696 17.7015C17.3779 18 13 18 13 18C13 18 8.62206 18 7.5303 17.7015C6.9279 17.5372 6.45349 17.0531 6.29249 16.4385C6 15.3244 6 13 6 13C6 13 6 10.6756 6.29249 9.56153C6.45349 8.94685 6.9279 8.46282 7.5303 8.29855C8.62206 8 13 8 13 8C13 8 17.3779 8 18.4696 8.29855Z" fill="#878D96"/>
<path d="M12 15V11L15 13.0001L12 15Z" fill="#878D96"/>
</svg>
