<svg width="114" height="22" viewBox="0 0 114 22" fill="none" xmlns="http://www.w3.org/2000/svg">
<g clip-path="url(#clip0_1_597)">
<path fill-rule="evenodd" clip-rule="evenodd" d="M113.781 1.58071H110.972C110.851 1.58071 110.753 1.67643 110.753 1.79543V8.01434H108.109C107.456 5.1791 104.942 3.31911 101.903 3.31911C98.3639 3.31911 95.6201 5.84134 95.6201 9.49147C95.6201 13.1416 98.3639 15.7207 101.903 15.7207C104.923 15.7207 107.425 13.8426 108.096 11.0255H110.753V21.5775C110.753 21.7198 110.893 21.8232 111.032 21.7819L113.842 20.9799C113.934 20.954 114 20.8687 114 20.7755V1.79284C114 1.67384 113.903 1.57812 113.781 1.57812V1.58071ZM101.906 12.738C99.9886 12.738 98.78 11.2894 98.78 9.49147C98.78 7.69357 99.9886 6.3044 101.906 6.3044C103.823 6.3044 105.121 7.69615 105.121 9.49147C105.121 11.2868 103.823 12.738 101.906 12.738Z" fill="#5E2BB8"/>
<path fill-rule="evenodd" clip-rule="evenodd" d="M38.6794 1.86786C38.8005 1.86786 38.8979 1.96357 38.8979 2.08257V5.55161H44.0906V8.44895H41.1309C42.2658 9.13447 43.0874 10.2753 43.0874 12.0939C43.0874 15.0792 40.491 17.3169 37.2469 17.3169C34.0028 17.3169 31.4064 15.0792 31.4064 12.0939C31.4064 10.2753 32.2253 9.13447 33.3629 8.44895H30.6191C30.4979 8.44895 30.4005 8.35323 30.4005 8.23423V5.76374C30.4005 5.64474 30.4979 5.54902 30.6191 5.54902H35.5932V2.08257C35.5932 1.96357 35.6907 1.86786 35.8118 1.86786H38.6794ZM34.4741 11.7524C34.4741 13.5219 35.8012 14.5928 37.2469 14.5928C38.6925 14.5928 40.0197 13.5193 40.0197 11.7524C40.0197 10.1589 38.6925 8.912 37.2469 8.912C35.8012 8.912 34.4741 10.1589 34.4741 11.7524Z" fill="#5E2BB8"/>
<path d="M91.8072 12.187H77.3456L77.3482 12.1844C77.2271 12.1844 77.1296 12.0887 77.1296 11.9697V2.31281C77.1296 2.19381 77.2271 2.09809 77.3482 2.09809H91.5729C91.694 2.09809 91.7914 2.19381 91.7914 2.31281V4.43407C91.7914 4.55307 91.694 4.64878 91.5729 4.64878H80.3448V5.89567H91.2779C91.3991 5.89567 91.4965 5.99139 91.4965 6.11038V8.14628C91.4965 8.26528 91.3991 8.36099 91.2779 8.36099H80.3448V9.63633H91.8072C91.9283 9.63633 92.0258 9.73205 92.0258 9.85105V11.9723C92.0258 12.0913 91.9283 12.187 91.8072 12.187Z" fill="#5E2BB8"/>
<path d="M74.6017 13.4313H94.1929C94.314 13.4313 94.4115 13.527 94.4115 13.646V16.0286C94.4115 16.1476 94.314 16.2433 94.1929 16.2433H86.0641V20.923C86.0641 21.0161 86.0009 21.1015 85.9088 21.1274L83.0412 21.9578C82.9016 21.9992 82.7621 21.8957 82.7621 21.7534V16.2433H74.6017C74.4806 16.2433 74.3832 16.1476 74.3832 16.0286V13.646C74.3832 13.527 74.4806 13.4313 74.6017 13.4313Z" fill="#5E2BB8"/>
<path d="M51.8086 8.01434H48.3696V1.79284C48.3696 1.67384 48.2722 1.57812 48.151 1.57812H45.3124C45.1913 1.57812 45.0939 1.67384 45.0939 1.79284V21.7508C45.0939 21.8931 45.2334 21.9966 45.373 21.9552L48.2116 21.1248C48.3038 21.0989 48.367 21.0135 48.367 20.9204V11.0255H51.806C51.9271 11.0255 52.0245 10.9298 52.0245 10.8108V8.22388C52.0245 8.10489 51.9271 8.00917 51.806 8.00917L51.8086 8.01434Z" fill="#5E2BB8"/>
<path d="M70.1674 8.01434H73.6064L73.6038 8.00917C73.7249 8.00917 73.8223 8.10489 73.8223 8.22388V10.8108C73.8223 10.9298 73.7249 11.0255 73.6038 11.0255H70.1648V20.923C70.1648 21.0161 70.1016 21.1015 70.0094 21.1274L67.1998 21.9552C67.0602 21.9966 66.9207 21.8931 66.9207 21.7508V15.3896C63.9846 15.9406 60.1454 16.2148 55.977 16.2148H54.1601C54.0389 16.2148 53.9415 16.1191 53.9415 16.0001V2.72154C53.9415 2.60254 54.0389 2.50682 54.1601 2.50682H56.9987C57.1198 2.50682 57.2172 2.60254 57.2172 2.72154V13.1416H57.3647C59.3896 13.1416 63.6923 12.9864 66.9207 12.2672V1.79284C66.9207 1.67384 67.0181 1.57812 67.1392 1.57812H69.9489C70.07 1.57812 70.1674 1.67384 70.1674 1.79284V8.01434Z" fill="#5E2BB8"/>
</g>
<g clip-path="url(#clip1_1_597)">
<path d="M5.69039 21.9504L0.442381 19.3712C0.171159 19.2393 0 18.9677 0 18.6702V0.471298C0 0.122066 0.373917 -0.105582 0.692537 0.0496328L5.94318 2.62878C6.2144 2.76071 6.38556 3.03233 6.38556 3.32983V21.5261C6.38556 21.8753 6.01164 22.103 5.69302 21.9478L5.69039 21.9504Z" fill="#5E2BB8"/>
<path d="M23.5673 21.9504L18.3167 19.3712C18.0455 19.2393 17.8743 18.9677 17.8743 18.6702V0.471298C17.8743 0.122066 18.2482 -0.105582 18.5668 0.0496328L23.8175 2.62878C24.0887 2.76071 24.2599 3.03233 24.2599 3.32983V21.5261C24.2599 21.8753 23.8859 22.103 23.5673 21.9478V21.9504Z" fill="#5E2BB8"/>
</g>
<path d="M9.63004 10.6585L14.8807 8.07938C15.1519 7.94745 15.3231 7.67583 15.3231 7.37833V0.471298C15.3231 0.122066 14.9491 -0.105582 14.6305 0.0496328L9.37988 2.62878C9.10866 2.76071 8.9375 3.03233 8.9375 3.32983V10.2369C8.9375 10.5861 9.31142 10.8137 9.63004 10.6585Z" fill="#08D1D9"/>
<path d="M9.63004 21.9504L14.8807 19.3712C15.1519 19.2393 15.3231 18.9677 15.3231 18.6702V11.7631C15.3231 11.4139 14.9491 11.1863 14.6305 11.3415L9.37988 13.9206C9.10866 14.0525 8.9375 14.3242 8.9375 14.6217V21.5287C8.9375 21.8779 9.31142 22.1056 9.63004 21.9504Z" fill="#08D1D9"/>
<defs>
<clipPath id="clip0_1_597">
<rect width="84" height="21" fill="white" transform="translate(30 1)"/>
</clipPath>
<clipPath id="clip1_1_597">
<rect width="25" height="22" fill="white"/>
</clipPath>
</defs>
</svg>
