<svg width="114" height="22" viewBox="0 0 114 22" fill="none" xmlns="http://www.w3.org/2000/svg">
<g clip-path="url(#clip0_4001_691)">
<path d="M5.69039 21.9504L0.442381 19.3712C0.171159 19.2393 0 18.9677 0 18.6702V0.471298C0 0.122066 0.373917 -0.105581 0.692537 0.0496328L5.94318 2.62878C6.2144 2.76071 6.38556 3.03233 6.38556 3.32983V21.5261C6.38556 21.8753 6.01164 22.103 5.69302 21.9478L5.69039 21.9504Z" fill="white"/>
<path d="M23.5673 21.9504L18.3167 19.3712C18.0455 19.2393 17.8743 18.9677 17.8743 18.6702V0.471298C17.8743 0.122066 18.2482 -0.105581 18.5668 0.0496328L23.8175 2.62878C24.0887 2.76071 24.2599 3.03233 24.2599 3.32983V21.5261C24.2599 21.8753 23.8859 22.103 23.5673 21.9478V21.9504Z" fill="white"/>
<path d="M9.62969 10.6585L14.8803 8.07938C15.1515 7.94745 15.3227 7.67583 15.3227 7.37833V0.471298C15.3227 0.122066 14.9488 -0.105581 14.6302 0.0496328L9.37953 2.62878C9.10831 2.76071 8.93715 3.03233 8.93715 3.32983V10.2369C8.93715 10.5861 9.31107 10.8137 9.62969 10.6585Z" fill="white"/>
<path d="M9.62969 21.9504L14.8803 19.3712C15.1515 19.2393 15.3227 18.9677 15.3227 18.6702V11.7631C15.3227 11.4139 14.9488 11.1863 14.6302 11.3415L9.37953 13.9206C9.10831 14.0525 8.93715 14.3242 8.93715 14.6217V21.5287C8.93715 21.8779 9.31107 22.1056 9.62969 21.9504Z" fill="white"/>
<path fill-rule="evenodd" clip-rule="evenodd" d="M113.781 1.58108H110.972C110.851 1.58108 110.753 1.6768 110.753 1.79579V8.01471H108.109C107.456 5.17946 104.942 3.31948 101.903 3.31948C98.3639 3.31948 95.6201 5.84171 95.6201 9.49183C95.6201 13.142 98.3639 15.7211 101.903 15.7211C104.923 15.7211 107.425 13.843 108.096 11.0259H110.753V21.5779C110.753 21.7201 110.893 21.8236 111.032 21.7822L113.842 20.9803C113.934 20.9544 114 20.869 114 20.7759V1.79321C114 1.67421 113.903 1.57849 113.781 1.57849V1.58108ZM101.906 12.7384C99.9886 12.7384 98.78 11.2897 98.78 9.49183C98.78 7.69394 99.9886 6.30477 101.906 6.30477C103.823 6.30477 105.121 7.69652 105.121 9.49183C105.121 11.2871 103.823 12.7384 101.906 12.7384Z" fill="white"/>
<path fill-rule="evenodd" clip-rule="evenodd" d="M38.6794 1.86823C38.8005 1.86823 38.8979 1.96394 38.8979 2.08294V5.55198H44.0906V8.44931H41.1309C42.2658 9.13484 43.0874 10.2757 43.0874 12.0943C43.0874 15.0795 40.491 17.3172 37.2469 17.3172C34.0028 17.3172 31.4064 15.0795 31.4064 12.0943C31.4064 10.2757 32.2254 9.13484 33.3629 8.44931H30.6191C30.498 8.44931 30.4005 8.3536 30.4005 8.2346V5.76411C30.4005 5.64511 30.498 5.54939 30.6191 5.54939H35.5932V2.08294C35.5932 1.96394 35.6907 1.86823 35.8118 1.86823H38.6794ZM34.4741 11.7528C34.4741 13.5222 35.8013 14.5932 37.2469 14.5932C38.6925 14.5932 40.0197 13.5196 40.0197 11.7528C40.0197 10.1593 38.6925 8.91237 37.2469 8.91237C35.8013 8.91237 34.4741 10.1593 34.4741 11.7528Z" fill="white"/>
<path d="M91.8072 12.1874H77.3456L77.3482 12.1848C77.2271 12.1848 77.1297 12.0891 77.1297 11.9701V2.31317C77.1297 2.19418 77.2271 2.09846 77.3482 2.09846H91.5729C91.694 2.09846 91.7914 2.19418 91.7914 2.31317V4.43444C91.7914 4.55343 91.694 4.64915 91.5729 4.64915H80.3448V5.89604H91.278C91.3991 5.89604 91.4965 5.99175 91.4965 6.11075V8.14664C91.4965 8.26564 91.3991 8.36136 91.278 8.36136H80.3448V9.6367H91.8072C91.9284 9.6367 92.0258 9.73242 92.0258 9.85141V11.9727C92.0258 12.0917 91.9284 12.1874 91.8072 12.1874Z" fill="white"/>
<path d="M74.6018 13.4317H94.1929C94.314 13.4317 94.4115 13.5274 94.4115 13.6464V16.0289C94.4115 16.1479 94.314 16.2437 94.1929 16.2437H86.0642V20.9234C86.0642 21.0165 86.001 21.1019 85.9088 21.1277L83.0412 21.9581C82.9017 21.9995 82.7621 21.896 82.7621 21.7538V16.2437H74.6018C74.4806 16.2437 74.3832 16.1479 74.3832 16.0289V13.6464C74.3832 13.5274 74.4806 13.4317 74.6018 13.4317Z" fill="white"/>
<path d="M51.8086 8.01471H48.3696V1.79321C48.3696 1.67421 48.2722 1.57849 48.1511 1.57849H45.3125C45.1913 1.57849 45.0939 1.67421 45.0939 1.79321V21.7512C45.0939 21.8935 45.2335 21.9969 45.373 21.9555L48.2116 21.1251C48.3038 21.0993 48.367 21.0139 48.367 20.9208V11.0259H51.806C51.9271 11.0259 52.0245 10.9302 52.0245 10.8112V8.22425C52.0245 8.10525 51.9271 8.00954 51.806 8.00954L51.8086 8.01471Z" fill="white"/>
<path d="M70.1674 8.01471H73.6064L73.6038 8.00954C73.7249 8.00954 73.8223 8.10525 73.8223 8.22425V10.8112C73.8223 10.9302 73.7249 11.0259 73.6038 11.0259H70.1648V20.9234C70.1648 21.0165 70.1016 21.1019 70.0094 21.1277L67.1998 21.9555C67.0602 21.9969 66.9207 21.8935 66.9207 21.7512V15.39C63.9846 15.941 60.1454 16.2152 55.977 16.2152H54.1601C54.039 16.2152 53.9415 16.1195 53.9415 16.0005V2.7219C53.9415 2.60291 54.039 2.50719 54.1601 2.50719H56.9987C57.1198 2.50719 57.2173 2.60291 57.2173 2.7219V13.142H57.3647C59.3897 13.142 63.6923 12.9867 66.9207 12.2676V1.79321C66.9207 1.67421 67.0181 1.57849 67.1392 1.57849H69.9489C70.07 1.57849 70.1674 1.67421 70.1674 1.79321V8.01471Z" fill="white"/>
</g>
<defs>
<clipPath id="clip0_4001_691">
<rect width="114" height="22" fill="white"/>
</clipPath>
</defs>
</svg>
